<svg xmlns="http://www.w3.org/2000/svg" xmlns:xlink="http://www.w3.org/1999/xlink" viewBox="0 0 442.67 442.67"><defs><style>.cls-1{isolation:isolate;}.cls-2{fill:url(#radial-gradient);}.cls-15,.cls-3{fill:url(#linear-gradient);}.cls-4{fill:url(#linear-gradient-2);}.cls-5{fill:url(#linear-gradient-3);}.cls-6{fill:url(#linear-gradient-4);}.cls-7{fill:url(#linear-gradient-5);}.cls-8{mix-blend-mode:overlay;}.cls-9{fill:url(#linear-gradient-6);}.cls-10,.cls-13{mix-blend-mode:screen;}.cls-10{opacity:0.5;}.cls-11{fill:url(#linear-gradient-7);}.cls-12{mix-blend-mode:soft-light;fill:url(#linear-gradient-8);}.cls-14{fill:url(#linear-gradient-9);}.cls-15{mix-blend-mode:hard-light;}</style><radialGradient id="radial-gradient" cx="221.33" cy="221.33" r="221.33" gradientUnits="userSpaceOnUse"><stop offset="0.01" stop-color="#370a97"/><stop offset="1" stop-color="#180a38"/></radialGradient><linearGradient id="linear-gradient" y1="221.33" x2="442.66" y2="221.33" gradientUnits="userSpaceOnUse"><stop offset="0" stop-color="#7a17f1"/><stop offset="0.5" stop-color="#fb0359"/><stop offset="0.64" stop-color="#fb3649"/><stop offset="0.81" stop-color="#fa7037"/><stop offset="0.93" stop-color="#fa932c"/><stop offset="1" stop-color="#faa128"/></linearGradient><linearGradient id="linear-gradient-2" x1="-182.94" y1="74.29" x2="647.02" y2="327.7" gradientUnits="userSpaceOnUse"><stop offset="0" stop-color="#6600fc"/><stop offset="0.33" stop-color="#a907d0"/><stop offset="0.39" stop-color="#c40abb"/><stop offset="0.5" stop-color="#fe128e"/><stop offset="0.55" stop-color="#fe107d"/><stop offset="0.65" stop-color="#fd0b52"/><stop offset="0.69" stop-color="#fd093f"/><stop offset="0.96" stop-color="#fba00f"/><stop offset="0.98" stop-color="#fba80c"/></linearGradient><linearGradient id="linear-gradient-3" x1="-208.21" y1="156.56" x2="621.8" y2="409.99" xlink:href="#linear-gradient-2"/><linearGradient id="linear-gradient-4" x1="-177.1" y1="55.11" x2="652.89" y2="308.53" xlink:href="#linear-gradient-2"/><linearGradient id="linear-gradient-5" x1="-169.59" y1="30.53" x2="660.37" y2="283.94" xlink:href="#linear-gradient-2"/><linearGradient id="linear-gradient-6" x1="-198.14" y1="139.47" x2="712.94" y2="324.07" gradientUnits="userSpaceOnUse"><stop offset="0.29" stop-color="#6600fc"/><stop offset="0.49" stop-color="#a907d0"/><stop offset="0.55" stop-color="#c40abb"/><stop offset="0.66" stop-color="#fe128e"/><stop offset="0.67" stop-color="#fe107d"/><stop offset="0.68" stop-color="#fd0b52"/><stop offset="0.69" stop-color="#fd093f"/><stop offset="0.98" stop-color="#fba00f"/><stop offset="1" stop-color="#fba80c"/></linearGradient><linearGradient id="linear-gradient-7" x1="109.11" y1="201.73" x2="403.25" y2="261.32" gradientUnits="userSpaceOnUse"><stop offset="0.05" stop-color="#ce65ff" stop-opacity="0"/><stop offset="0.73" stop-color="#fff" stop-opacity="0.99"/></linearGradient><linearGradient id="linear-gradient-8" x1="-97.82" y1="118.02" x2="646.43" y2="370.28" gradientUnits="userSpaceOnUse"><stop offset="0.16" stop-color="#6600fc"/><stop offset="0.36" stop-color="#a907d0"/><stop offset="0.41" stop-color="#c40abb"/><stop offset="0.5" stop-color="#fe128e"/><stop offset="0.55" stop-color="#fe107d"/><stop offset="0.63" stop-color="#fd0b52"/><stop offset="0.66" stop-color="#fd093f"/><stop offset="0.96" stop-color="#fba00f"/><stop offset="0.98" stop-color="#fba80c"/></linearGradient><linearGradient id="linear-gradient-9" x1="-27.53" y1="141.85" x2="716.73" y2="394.1" gradientUnits="userSpaceOnUse"><stop offset="0" stop-color="#ebb2ed" stop-opacity="0.4"/><stop offset="0.85" stop-color="#ffcbff" stop-opacity="0.99"/></linearGradient></defs><g class="cls-1"><g id="Layer_1" data-name="Layer 1"><rect class="cls-2" width="442.66" height="442.66" rx="221.33"/><path class="cls-3" d="M377.84,64.83A221.34,221.34,0,0,0,0,221.33C0,343.57,99.1,442.66,221.33,442.66A221.33,221.33,0,0,0,377.84,64.83Zm-6.53,306.48a211.37,211.37,0,0,1-150,62.13c-117.14,0-212.1-95-212.1-212.11a212.11,212.11,0,1,1,362.08,150Z"/><path class="cls-4" d="M177.46,152.15v49h-45.4c-17.21,0-28.25-11.84-28.28-30.19,0-3.92,0-14.69,0-18.79Z"/><polygon class="cls-5" points="285.55 275.11 285.55 323 231.51 323 231.51 293.66 218.04 293.66 218.04 323 164.03 323 164.03 275.11 190.93 275.11 190.93 246.31 258.63 246.31 258.63 275.11 285.55 275.11"/><path class="cls-6" d="M258.63,131.8v101H190.94v-101a12.13,12.13,0,0,1,12.12-12.14H246.5A12.14,12.14,0,0,1,258.63,131.8Z"/><path class="cls-7" d="M345.78,170.94c0,18.35-11.06,30.16-28.27,30.19H272.1v-49h73.68C345.78,156.25,345.79,167,345.78,170.94Z"/><g class="cls-8"><path class="cls-9" d="M190.94,177.05v55.78h21.68V177.05Zm0,98.06H164V323h21.69V296.8h26.9V246.31H190.93Zm-13.47-123H103.78c0,4.1,0,14.87,0,18.79,0,18.35,11.07,30.16,28.28,30.19h45.4Zm69-32.49H203.06a12.12,12.12,0,0,0-12.12,12.12v45.27h21.68V156.72a12.16,12.16,0,0,1,12.17-12.16h0A12.16,12.16,0,0,1,237,156.72v20.33h21.68V131.8A12.14,12.14,0,0,0,246.5,119.66Zm99.28,32.49H272.1v49h45.41c17.21,0,28.24-11.84,28.27-30.19C345.79,167,345.78,156.25,345.78,152.15ZM237,177.05v55.78h21.68V177.05Zm21.68,98.06v-28.8H237V296.8h26.91V323h21.69V275.11Z"/></g><g class="cls-10"><path class="cls-11" d="M258.63,275.11v-28.8H237V296.8h26.91V323h21.69V275.11ZM237,177.05v55.78h21.68V177.05Zm108.83-24.9H272.1v49h45.41c17.21,0,28.24-11.84,28.27-30.19C345.79,167,345.78,156.25,345.78,152.15ZM246.5,119.66H203.06a12.12,12.12,0,0,0-12.12,12.12v45.27h21.68V156.72a12.16,12.16,0,0,1,12.17-12.16h0A12.16,12.16,0,0,1,237,156.72v20.33h21.68V131.8A12.14,12.14,0,0,0,246.5,119.66ZM103.78,152.15c0,4.1,0,14.87,0,18.79,0,18.35,11.07,30.16,28.28,30.19h45.4v-49Zm87.15,94.16v28.8H164V323h21.69V296.8h26.9V246.31Zm0-69.26v55.78h21.68V177.05Z"/></g><path class="cls-12" d="M177.46,152.15H103.78c0,4.1,0,14.87,0,18.79,0,18.35,11.07,30.16,28.28,30.19h45.4v-10.2H132.07c-11.48,0-18.07-7.3-18.08-20,0-1.82,0-5.13,0-8.56h63.49Zm81.17,123v-28.8h-10.2v39h26.91V323h10.21V275.11Zm-67.7,0H164V323h10.21V285.32h26.9v-39h-10.2ZM246.5,119.66H203.06a12.12,12.12,0,0,0-12.12,12.12v30.57h10.2V142.63a12.79,12.79,0,0,1,12.76-12.76h21.77a12.79,12.79,0,0,1,12.76,12.76v19.72h10.2V131.8A12.14,12.14,0,0,0,246.5,119.66Zm99.28,32.49H272.1v10.2h63.49c0,3.43,0,6.75,0,8.58,0,12.69-6.6,20-18.08,20H272.1v10.2h45.41c17.21,0,28.24-11.84,28.27-30.19C345.79,167,345.78,156.25,345.78,152.15Zm-97.35,10.21v70.47h10.2V162.36Zm-57.49,0v70.47h10.19v-8.38h0v-62.1Z"/><g class="cls-13"><path class="cls-14" d="M177.46,152.15H103.78c0,4.1,0,14.87,0,18.79,0,18.35,11.07,30.16,28.28,30.19h45.4v-10.2H132.07c-11.48,0-18.07-7.3-18.08-20,0-1.82,0-5.13,0-8.56h63.49Zm81.17,123v-28.8h-10.2v39h26.91V323h10.21V275.11Zm-67.7,0H164V323h10.21V285.32h26.9v-39h-10.2ZM246.5,119.66H203.06a12.12,12.12,0,0,0-12.12,12.12v30.57h10.2V142.63a12.79,12.79,0,0,1,12.76-12.76h21.77a12.79,12.79,0,0,1,12.76,12.76v19.72h10.2V131.8A12.14,12.14,0,0,0,246.5,119.66Zm99.28,32.49H272.1v10.2h63.49c0,3.43,0,6.75,0,8.58,0,12.69-6.6,20-18.08,20H272.1v10.2h45.41c17.21,0,28.24-11.84,28.27-30.19C345.79,167,345.78,156.25,345.78,152.15Zm-97.35,10.2v70.48h10.2V162.35Zm-57.49,0v70.47h10.19v-8.38h0v-62.1Z"/></g><path class="cls-15" d="M377.84,64.83A221.34,221.34,0,0,0,0,221.33C0,343.57,99.1,442.66,221.33,442.66A221.33,221.33,0,0,0,377.84,64.83Zm-6.53,306.48a211.37,211.37,0,0,1-150,62.13c-117.14,0-212.1-95-212.1-212.11a212.11,212.11,0,1,1,362.08,150Z"/></g></g></svg>