<svg xmlns="http://www.w3.org/2000/svg" xmlns:xlink="http://www.w3.org/1999/xlink" viewBox="0 0 450 378"><defs><style>.cls-1{isolation:isolate;}.cls-2{fill:url(#linear-gradient);}.cls-3{fill:url(#linear-gradient-2);}.cls-4{fill:url(#linear-gradient-3);}.cls-5{fill:url(#linear-gradient-4);}.cls-6{mix-blend-mode:overlay;}.cls-7{fill:url(#linear-gradient-5);}.cls-11,.cls-8{mix-blend-mode:screen;}.cls-8{opacity:0.5;}.cls-9{fill:url(#linear-gradient-6);}.cls-10{mix-blend-mode:soft-light;fill:url(#linear-gradient-7);}.cls-12{fill:url(#linear-gradient-8);}</style><linearGradient id="linear-gradient" x1="-533.11" y1="-84.39" x2="1010.1" y2="386.79" gradientUnits="userSpaceOnUse"><stop offset="0" stop-color="#6600fc"/><stop offset="0.33" stop-color="#a907d0"/><stop offset="0.39" stop-color="#c40abb"/><stop offset="0.5" stop-color="#fe128e"/><stop offset="0.55" stop-color="#fe107d"/><stop offset="0.65" stop-color="#fd0b52"/><stop offset="0.69" stop-color="#fd093f"/><stop offset="0.96" stop-color="#fba00f"/><stop offset="0.98" stop-color="#fba80c"/></linearGradient><linearGradient id="linear-gradient-2" x1="-580.1" y1="68.53" x2="963.21" y2="539.75" xlink:href="#linear-gradient"/><linearGradient id="linear-gradient-3" x1="-522.21" y1="-120.04" x2="1020.98" y2="351.14" xlink:href="#linear-gradient"/><linearGradient id="linear-gradient-4" x1="-508.27" y1="-165.76" x2="1034.94" y2="305.43" xlink:href="#linear-gradient"/><linearGradient id="linear-gradient-5" x1="-561.39" y1="36.79" x2="1132.71" y2="380.04" gradientUnits="userSpaceOnUse"><stop offset="0.29" stop-color="#6600fc"/><stop offset="0.49" stop-color="#a907d0"/><stop offset="0.55" stop-color="#c40abb"/><stop offset="0.66" stop-color="#fe128e"/><stop offset="0.67" stop-color="#fe107d"/><stop offset="0.68" stop-color="#fd0b52"/><stop offset="0.69" stop-color="#fd093f"/><stop offset="0.98" stop-color="#fba00f"/><stop offset="1" stop-color="#fba80c"/></linearGradient><linearGradient id="linear-gradient-6" x1="9.92" y1="152.54" x2="556.85" y2="263.36" gradientUnits="userSpaceOnUse"><stop offset="0.05" stop-color="#ce65ff" stop-opacity="0"/><stop offset="0.73" stop-color="#fff" stop-opacity="0.99"/></linearGradient><linearGradient id="linear-gradient-7" x1="-374.85" y1="-3.1" x2="1009.03" y2="465.95" gradientUnits="userSpaceOnUse"><stop offset="0.16" stop-color="#6600fc"/><stop offset="0.36" stop-color="#a907d0"/><stop offset="0.41" stop-color="#c40abb"/><stop offset="0.5" stop-color="#fe128e"/><stop offset="0.55" stop-color="#fe107d"/><stop offset="0.63" stop-color="#fd0b52"/><stop offset="0.66" stop-color="#fd093f"/><stop offset="0.96" stop-color="#fba00f"/><stop offset="0.98" stop-color="#fba80c"/></linearGradient><linearGradient id="linear-gradient-8" x1="-244.13" y1="41.2" x2="1139.75" y2="510.25" gradientUnits="userSpaceOnUse"><stop offset="0" stop-color="#ebb2ed" stop-opacity="0.4"/><stop offset="0.85" stop-color="#ffcbff" stop-opacity="0.99"/></linearGradient></defs><g class="cls-1"><g id="Layer_1" data-name="Layer 1"><path class="cls-2" d="M137,60.38v91.05s-21.45,0-46.44,0H87c-11.46,0-23.43,0-34.37,0-32-.05-52.53-22-52.58-56.11C0,88,0,68,0,60.38Z"/><polygon class="cls-3" points="337.99 288.97 337.99 378 237.52 378 237.52 323.45 212.48 323.45 212.48 378 112.03 378 112.03 288.97 162.05 288.97 162.05 235.44 287.95 235.44 287.95 288.97 337.99 288.97"/><path class="cls-4" d="M288,22.55V210.37H162.08V22.55A22.54,22.54,0,0,1,184.61,0h80.78A22.56,22.56,0,0,1,288,22.55Z"/><path class="cls-5" d="M450,95.32c-.05,34.1-20.56,56.06-52.56,56.11-10.93,0-23,0-34.39,0h-3.61c-25,0-46.44,0-46.44,0V60.38H450C450,68,450,88,450,95.32Z"/><g class="cls-6"><path class="cls-7" d="M162.08,106.68V210.37H202.4V106.68Zm0,182.29H112v89h40.32V329.29h50V235.44H162.05ZM137,60.38H0C0,68,0,88,0,95.32c0,34.1,20.59,56.06,52.58,56.11,10.94,0,22.91,0,34.37,0h3.61c25,0,46.44,0,46.44,0ZM265.39,0H184.61a22.53,22.53,0,0,0-22.53,22.53v84.15H202.4V68.89A22.61,22.61,0,0,1,225,46.27h0a22.62,22.62,0,0,1,22.62,22.62v37.79H288V22.55A22.56,22.56,0,0,0,265.39,0ZM450,60.38H313v91.05s21.42,0,46.44,0H363c11.43,0,23.46,0,34.39,0,32-.05,52.51-22,52.56-56.11C450,88,450,68,450,60.38Zm-202.36,46.3V210.37H288V106.68ZM288,289V235.44H247.63v93.85h50V378H338V289Z"/></g><g class="cls-8"><path class="cls-9" d="M288,289V235.44H247.63v93.85h50V378H338V289ZM247.63,106.68V210.37H288V106.68ZM450,60.38H313v91.05s21.42,0,46.44,0H363c11.43,0,23.46,0,34.39,0,32-.05,52.51-22,52.56-56.11C450,88,450,68,450,60.38ZM265.39,0H184.61a22.53,22.53,0,0,0-22.53,22.53v84.15H202.4V68.89A22.61,22.61,0,0,1,225,46.27h0a22.62,22.62,0,0,1,22.62,22.62v37.79H288V22.55A22.56,22.56,0,0,0,265.39,0ZM0,60.38C0,68,0,88,0,95.32c0,34.1,20.59,56.06,52.58,56.11,10.94,0,22.91,0,34.37,0h3.61c25,0,46.44,0,46.44,0V60.38Zm162,175.06V289H112v89h40.32V329.29h50V235.44Zm0-128.76V210.37H202.4V106.68Z"/></g><path class="cls-10" d="M137,60.38H0C0,68,0,88,0,95.32c0,34.1,20.59,56.06,52.58,56.11,10.94,0,22.91,0,34.37,0h3.61c25,0,46.44,0,46.44,0v-19H87c-11.43,0-23.41,0-34.34,0C31.27,132.44,19,118.89,19,95.27c0-3.39,0-9.53,0-15.91H137ZM288,289V235.44H269v72.5h50V378h19V289Zm-125.9,0H112v89h19V307.94h50v-72.5h-19ZM265.39,0H184.61a22.53,22.53,0,0,0-22.53,22.53V79.36h19V42.69A23.79,23.79,0,0,1,204.77,19h40.49A23.79,23.79,0,0,1,269,42.69V79.36h19V22.55A22.56,22.56,0,0,0,265.39,0ZM450,60.38H313v19H431c0,6.38,0,12.54,0,15.93,0,23.6-12.29,37.15-33.64,37.17-10.91,0-22.91,0-34.34,0H313v19s21.42,0,46.44,0H363c11.43,0,23.46,0,34.39,0,32-.05,52.51-22,52.56-56.11C450,88,450,68,450,60.38Zm-181,19v131h19v-131Zm-106.89,0v131H181V194.79h0V79.34Z"/><g class="cls-11"><path class="cls-12" d="M137,60.38H0C0,68,0,88,0,95.32c0,34.1,20.59,56.06,52.58,56.11,10.94,0,22.91,0,34.37,0h3.61c25,0,46.44,0,46.44,0v-19H87c-11.43,0-23.41,0-34.34,0C31.27,132.44,19,118.89,19,95.27c0-3.39,0-9.53,0-15.91H137ZM288,289V235.44H269v72.5h50V378h19V289Zm-125.9,0H112v89h19V307.94h50v-72.5h-19ZM265.39,0H184.61a22.53,22.53,0,0,0-22.53,22.53V79.36h19V42.69A23.79,23.79,0,0,1,204.77,19h40.49A23.79,23.79,0,0,1,269,42.69V79.36h19V22.55A22.56,22.56,0,0,0,265.39,0ZM450,60.38H313v19H431c0,6.38,0,12.54,0,15.93,0,23.6-12.29,37.15-33.64,37.17-10.91,0-22.91,0-34.34,0H313v19s21.42,0,46.44,0H363c11.43,0,23.46,0,34.39,0,32-.05,52.51-22,52.56-56.11C450,88,450,68,450,60.38Zm-181,19v131h19v-131Zm-106.89,0v131H181V194.79h0V79.34Z"/></g></g></g></svg>