<svg id="Layer_1" data-name="Layer 1" xmlns="http://www.w3.org/2000/svg" viewBox="0 0 450 379"><defs><style>.cls-1{fill:#6600fc;}</style></defs><path class="cls-1" d="M137,60.56v91.29s-21.42,0-46.43,0H87c-11.44,0-23.44,0-34.35,0C20.6,151.8.05,129.78,0,95.58c0-7.3,0-27.38,0-35Z"/><polygon class="cls-1" points="337.99 289.75 337.99 379 237.53 379 237.53 324.32 212.47 324.32 212.47 379 112.04 379 112.04 289.75 162.06 289.75 162.06 236.06 287.94 236.06 287.94 289.75 337.99 289.75"/><path class="cls-1" d="M184.65,0h80.71a22.58,22.58,0,0,1,22.58,22.58V210.93a0,0,0,0,1,0,0H162.07a0,0,0,0,1,0,0V22.58A22.58,22.58,0,0,1,184.65,0Z"/><path class="cls-1" d="M450,95.58c0,34.2-20.57,56.22-52.57,56.27-10.92,0-22.94,0-34.38,0h-3.61c-25,0-46.43,0-46.43,0V60.56H450C450,68.2,450,88.28,450,95.58Z"/></svg>