<svg id="Layer_1" data-name="Layer 1" xmlns="http://www.w3.org/2000/svg" viewBox="0 0 450 378"><path d="M137,60.4v91s-21.42,0-46.43,0H87c-11.44,0-23.44,0-34.35,0-32,0-52.56-22-52.6-56.12C0,88.05,0,68,0,60.4Z"/><polygon points="337.99 288.98 337.99 378 237.53 378 237.53 323.46 212.47 323.46 212.47 378 112.04 378 112.04 288.98 162.06 288.98 162.06 235.44 287.94 235.44 287.94 288.98 337.99 288.98"/><path d="M184.62,0h80.77a22.55,22.55,0,0,1,22.55,22.55V210.37a0,0,0,0,1,0,0H162.07a0,0,0,0,1,0,0V22.55A22.55,22.55,0,0,1,184.62,0Z"/><path d="M450,95.33c0,34.1-20.57,56.07-52.57,56.12-10.92,0-22.94,0-34.38,0h-3.61c-25,0-46.43,0-46.43,0v-91H450C450,68,450,88.05,450,95.33Z"/></svg>