<svg xmlns="http://www.w3.org/2000/svg" xmlns:xlink="http://www.w3.org/1999/xlink" viewBox="0 0 729.19 159.07"><defs><style>.cls-1{isolation:isolate;}.cls-2{fill:url(#linear-gradient);}.cls-3{fill:url(#linear-gradient-2);}.cls-4{fill:url(#linear-gradient-3);}.cls-5{fill:url(#linear-gradient-4);}.cls-6{fill:url(#linear-gradient-5);}.cls-7{fill:url(#linear-gradient-6);}.cls-8{fill:url(#linear-gradient-7);}.cls-9{fill:url(#linear-gradient-8);}.cls-10{mix-blend-mode:overlay;}.cls-11{fill:url(#linear-gradient-9);}.cls-12,.cls-16,.cls-24{mix-blend-mode:screen;}.cls-12{opacity:0.5;}.cls-13{fill:url(#linear-gradient-10);}.cls-14,.cls-27{mix-blend-mode:soft-light;}.cls-15{fill:url(#linear-gradient-11);}.cls-17{fill:url(#linear-gradient-12);}.cls-18{fill:url(#linear-gradient-13);}.cls-19{fill:url(#linear-gradient-14);}.cls-20{fill:url(#linear-gradient-15);}.cls-21{fill:url(#linear-gradient-16);}.cls-22{fill:url(#linear-gradient-17);}.cls-23{fill:url(#linear-gradient-18);}.cls-24{opacity:0.62;}.cls-25{fill:url(#linear-gradient-19);}.cls-26{fill:url(#linear-gradient-20);}.cls-27{fill:url(#linear-gradient-21);}.cls-28{fill:url(#linear-gradient-22);}.cls-29{fill:url(#linear-gradient-23);}.cls-30{fill:url(#linear-gradient-24);}.cls-31{fill:url(#linear-gradient-25);}.cls-32{fill:url(#linear-gradient-26);}.cls-33{fill:url(#linear-gradient-27);}.cls-34{fill:url(#linear-gradient-28);}.cls-35{fill:url(#linear-gradient-29);}</style><linearGradient id="linear-gradient" x1="71.68" y1="-87.46" x2="721.05" y2="110.81" gradientUnits="userSpaceOnUse"><stop offset="0" stop-color="#6600fc"/><stop offset="0.33" stop-color="#a907d0"/><stop offset="0.39" stop-color="#c40abb"/><stop offset="0.5" stop-color="#fe128e"/><stop offset="0.55" stop-color="#fe107d"/><stop offset="0.65" stop-color="#fd0b52"/><stop offset="0.69" stop-color="#fd093f"/><stop offset="0.96" stop-color="#fba00f"/><stop offset="0.98" stop-color="#fba80c"/></linearGradient><linearGradient id="linear-gradient-2" x1="34.45" y1="34.5" x2="683.81" y2="232.77" xlink:href="#linear-gradient"/><linearGradient id="linear-gradient-3" x1="58.6" y1="-44.61" x2="707.97" y2="153.66" xlink:href="#linear-gradient"/><linearGradient id="linear-gradient-4" x1="55.83" y1="-35.51" x2="705.18" y2="162.76" xlink:href="#linear-gradient"/><linearGradient id="linear-gradient-5" x1="36.06" y1="28.85" x2="685.45" y2="227.13" xlink:href="#linear-gradient"/><linearGradient id="linear-gradient-6" x1="60.41" y1="-50.51" x2="709.76" y2="147.76" xlink:href="#linear-gradient"/><linearGradient id="linear-gradient-7" x1="66.28" y1="-69.75" x2="715.63" y2="128.52" xlink:href="#linear-gradient"/><linearGradient id="linear-gradient-8" x1="-4.22" y1="65.92" x2="645.15" y2="264.19" gradientUnits="userSpaceOnUse"><stop offset="0.03" stop-color="#6600fc"/><stop offset="0.1" stop-color="#850fee"/><stop offset="0.19" stop-color="#aa20de"/><stop offset="0.27" stop-color="#c12bd4"/><stop offset="0.31" stop-color="#c92fd0"/><stop offset="0.36" stop-color="#b82cd0"/><stop offset="0.46" stop-color="#9524d0"/><stop offset="0.55" stop-color="#7f20d0"/><stop offset="0.61" stop-color="#771ed0"/><stop offset="0.82" stop-color="#fe4050"/><stop offset="0.85" stop-color="#fe474b"/><stop offset="0.89" stop-color="#fd5a3f"/><stop offset="0.94" stop-color="#fc7a2a"/><stop offset="1" stop-color="#fba60d"/><stop offset="1" stop-color="#fba80c"/></linearGradient><linearGradient id="linear-gradient-9" x1="-7.62" y1="56.39" x2="510.62" y2="263.69" gradientUnits="userSpaceOnUse"><stop offset="0.06" stop-color="#6600fc"/><stop offset="0.35" stop-color="#ed2fd0"/><stop offset="0.68" stop-color="#fe4050"/><stop offset="0.76" stop-color="#fba80c"/><stop offset="1" stop-color="#0076ff" stop-opacity="0.99"/></linearGradient><linearGradient id="linear-gradient-10" x1="-71.39" y1="31.72" x2="144.44" y2="116.88" gradientUnits="userSpaceOnUse"><stop offset="0" stop-color="#dba0ff" stop-opacity="0"/><stop offset="1" stop-color="#dba0ff" stop-opacity="0.99"/></linearGradient><linearGradient id="linear-gradient-11" x1="-14.36" y1="40.16" x2="752.33" y2="454.53" gradientUnits="userSpaceOnUse"><stop offset="0" stop-color="#6600fc"/><stop offset="0.24" stop-color="#ed2fd0"/><stop offset="0.51" stop-color="#fe4050"/><stop offset="0.76" stop-color="#fba80c"/><stop offset="1" stop-color="#0076ff" stop-opacity="0.99"/></linearGradient><linearGradient id="linear-gradient-12" x1="-40.53" y1="44.94" x2="372.5" y2="204.38" gradientUnits="userSpaceOnUse"><stop offset="0" stop-color="#dba0ff" stop-opacity="0.4"/><stop offset="0.94" stop-color="#eed3ff" stop-opacity="0.99"/></linearGradient><linearGradient id="linear-gradient-13" x1="34.84" y1="-34.47" x2="747.68" y2="109.96" gradientUnits="userSpaceOnUse"><stop offset="0.12" stop-color="#6600fc"/><stop offset="0.33" stop-color="#a907d0"/><stop offset="0.4" stop-color="#c40abb"/><stop offset="0.52" stop-color="#fe128e"/><stop offset="0.57" stop-color="#fe107d"/><stop offset="0.67" stop-color="#fd0b52"/><stop offset="0.71" stop-color="#fd093f"/><stop offset="0.98" stop-color="#fba00f"/><stop offset="1" stop-color="#fba80c"/></linearGradient><linearGradient id="linear-gradient-14" x1="41.63" y1="55.38" x2="754.47" y2="199.81" gradientUnits="userSpaceOnUse"><stop offset="0.13" stop-color="#6600fc"/><stop offset="0.33" stop-color="#a907d0"/><stop offset="0.4" stop-color="#c40abb"/><stop offset="0.54" stop-color="#fe128e"/><stop offset="0.59" stop-color="#fe107d"/><stop offset="0.68" stop-color="#fd0b52"/><stop offset="0.72" stop-color="#fd093f"/><stop offset="0.98" stop-color="#fba00f"/><stop offset="0.99" stop-color="#fba80c"/></linearGradient><linearGradient id="linear-gradient-15" x1="39.15" y1="-2.52" x2="751.99" y2="141.91" gradientUnits="userSpaceOnUse"><stop offset="0.11" stop-color="#6600fc"/><stop offset="0.54" stop-color="#a907d0"/><stop offset="0.58" stop-color="#c40abb"/><stop offset="0.64" stop-color="#fe128e"/><stop offset="0.66" stop-color="#fe107d"/><stop offset="0.7" stop-color="#fd0b52"/><stop offset="0.72" stop-color="#fd093f"/><stop offset="0.98" stop-color="#fba00f"/><stop offset="1" stop-color="#fba80c"/></linearGradient><linearGradient id="linear-gradient-16" x1="43.93" y1="15.48" x2="756.77" y2="159.92" gradientUnits="userSpaceOnUse"><stop offset="0.29" stop-color="#6600fc"/><stop offset="0.49" stop-color="#a907d0"/><stop offset="0.55" stop-color="#c40abb"/><stop offset="0.66" stop-color="#fe128e"/><stop offset="0.67" stop-color="#fe107d"/><stop offset="0.68" stop-color="#fd0b52"/><stop offset="0.69" stop-color="#fd093f"/><stop offset="0.98" stop-color="#fba00f"/><stop offset="1" stop-color="#fba80c"/></linearGradient><linearGradient id="linear-gradient-17" x1="455.32" y1="50.72" x2="741.28" y2="108.66" gradientUnits="userSpaceOnUse"><stop offset="0.46" stop-color="#dbffe6" stop-opacity="0"/><stop offset="0.51" stop-color="#ddffe7" stop-opacity="0.05"/><stop offset="0.6" stop-color="#e2ffeb" stop-opacity="0.19"/><stop offset="0.72" stop-color="#eafff0" stop-opacity="0.41"/><stop offset="0.87" stop-color="#f5fff8" stop-opacity="0.72"/><stop offset="0.99" stop-color="#fff" stop-opacity="0.99"/></linearGradient><linearGradient id="linear-gradient-18" x1="41.63" y1="55.38" x2="344.08" y2="116.66" gradientUnits="userSpaceOnUse"><stop offset="0.33" stop-color="#dba0ff" stop-opacity="0"/><stop offset="1" stop-color="#dba0ff" stop-opacity="0.99"/></linearGradient><linearGradient id="linear-gradient-19" x1="358.83" y1="62.25" x2="583.8" y2="107.84" gradientUnits="userSpaceOnUse"><stop offset="0.36" stop-color="#f9ffff" stop-opacity="0"/><stop offset="0.98" stop-color="#fff1e7" stop-opacity="0.99"/></linearGradient><linearGradient id="linear-gradient-20" x1="284.33" y1="64.19" x2="514.46" y2="110.82" gradientUnits="userSpaceOnUse"><stop offset="0.05" stop-color="#ce65ff" stop-opacity="0"/><stop offset="0.73" stop-color="#fff" stop-opacity="0.99"/></linearGradient><linearGradient id="linear-gradient-21" x1="122.42" y1="-1.3" x2="704.73" y2="196.07" gradientUnits="userSpaceOnUse"><stop offset="0.16" stop-color="#6600fc"/><stop offset="0.36" stop-color="#a907d0"/><stop offset="0.41" stop-color="#c40abb"/><stop offset="0.5" stop-color="#fe128e"/><stop offset="0.55" stop-color="#fe107d"/><stop offset="0.63" stop-color="#fd0b52"/><stop offset="0.66" stop-color="#fd093f"/><stop offset="0.96" stop-color="#fba00f"/><stop offset="0.98" stop-color="#fba80c"/></linearGradient><linearGradient id="linear-gradient-22" x1="177.43" y1="17.34" x2="759.73" y2="214.71" gradientUnits="userSpaceOnUse"><stop offset="0" stop-color="#ebb2ed" stop-opacity="0.4"/><stop offset="0.85" stop-color="#ffcbff" stop-opacity="0.99"/></linearGradient><linearGradient id="linear-gradient-23" x1="52.41" y1="-46.62" x2="783.27" y2="120.35" gradientUnits="userSpaceOnUse"><stop offset="0" stop-color="#6600fc"/><stop offset="0.33" stop-color="#a907d0"/><stop offset="0.39" stop-color="#c40abb"/><stop offset="0.5" stop-color="#fe128e"/><stop offset="0.57" stop-color="#fe107d"/><stop offset="0.69" stop-color="#fd0b52"/><stop offset="0.74" stop-color="#fd093f"/><stop offset="0.9" stop-color="#fba00f"/><stop offset="0.9" stop-color="#fba80c"/></linearGradient><linearGradient id="linear-gradient-24" x1="1" y1="35.23" x2="731.3" y2="222.31" gradientUnits="userSpaceOnUse"><stop offset="0.22" stop-color="#6600fc"/><stop offset="0.35" stop-color="#a907d0"/><stop offset="0.38" stop-color="#c40abb"/><stop offset="0.44" stop-color="#fe128e"/><stop offset="0.51" stop-color="#fe107d"/><stop offset="0.64" stop-color="#fd0b52"/><stop offset="0.69" stop-color="#fd093f"/><stop offset="0.96" stop-color="#fba00f"/><stop offset="0.98" stop-color="#fba80c"/></linearGradient><linearGradient id="linear-gradient-25" x1="125.95" y1="-11.2" x2="737.06" y2="154.77" xlink:href="#linear-gradient"/><linearGradient id="linear-gradient-26" x1="158.89" y1="75.67" x2="360.74" y2="127.38" gradientUnits="userSpaceOnUse"><stop offset="0" stop-color="#dba0ff" stop-opacity="0.4"/><stop offset="0.87" stop-color="#ebb2ed" stop-opacity="0.99"/></linearGradient><linearGradient id="linear-gradient-27" x1="137.06" y1="-8.18" x2="748.17" y2="157.79" gradientUnits="userSpaceOnUse"><stop offset="0.23" stop-color="#ff89ff" stop-opacity="0.4"/><stop offset="0.77" stop-color="#ff9abe" stop-opacity="0.99"/></linearGradient><linearGradient id="linear-gradient-28" x1="511.05" y1="33.04" x2="912.68" y2="192.42" gradientUnits="userSpaceOnUse"><stop offset="0" stop-color="#dba0ff" stop-opacity="0.4"/><stop offset="1" stop-color="#fff" stop-opacity="0.99"/></linearGradient><linearGradient id="linear-gradient-29" x1="621.06" y1="100.35" x2="682.09" y2="87.71" gradientUnits="userSpaceOnUse"><stop offset="0.31" stop-color="#dba0ff" stop-opacity="0.3"/><stop offset="1" stop-color="#fff" stop-opacity="0.99"/></linearGradient></defs><g class="cls-1"><g id="Layer_1" data-name="Layer 1"><path class="cls-2" d="M591.25,25.41V159.07H729.19V25.41Zm74.24,88.73a5.45,5.45,0,0,1-5.46,5.52,5.26,5.26,0,0,1-5.08-5.27V70.08a5.27,5.27,0,0,1,5.27-5.27h0a5.27,5.27,0,0,1,5.27,5.27Z"/><path class="cls-3" d="M302.27,71.32h14.47v87.73H174.54V120.6h68.68a5.27,5.27,0,0,0,5.27-5.28h0a5.27,5.27,0,0,0-5.27-5.27H174.54V25.41h63.37V66.85a5.29,5.29,0,0,0,5.29,5.29h0a5.29,5.29,0,0,0,5.29-5.29V25.41h24.07V40.13c0,9,2.81,16.73,8.08,22.35C286,68.25,293.52,71.31,302.27,71.32Z"/><path class="cls-4" d="M580.71,25.41V159.06H512.08v-45.9H501.54v45.9H432.91V71.33h14.48c8.75,0,16.23-3.07,21.63-8.84,5.27-5.62,8.06-13.36,8.07-22.36,0-2.17,0-7.07,0-10.87V25.41h24.44V66.85a5.28,5.28,0,0,0,5.28,5.29h0a5.28,5.28,0,0,0,5.28-5.29V25.41Z"/><path class="cls-5" d="M337.8,25.41V63.72H302.28c-13.46,0-22.1-9.26-22.12-23.61,0-3.06,0-11.49,0-14.7Z"/><polygon class="cls-6" points="422.37 121.6 422.37 159.06 380.1 159.06 380.1 136.11 369.56 136.11 369.56 159.06 327.29 159.06 327.29 121.6 348.34 121.6 348.34 99.07 401.31 99.07 401.31 121.6 422.37 121.6"/><path class="cls-7" d="M401.31,9.49v79h-53v-79A9.48,9.48,0,0,1,357.83,0h34A9.49,9.49,0,0,1,401.31,9.49Z"/><path class="cls-8" d="M469.5,40.11c0,14.35-8.66,23.59-22.12,23.61H411.85V25.41H469.5C469.5,28.62,469.51,37.05,469.5,40.11Z"/><path class="cls-9" d="M164,25.42V159.07H111V113.16H100.49v45.91h-37V113.16H53v45.91H0V25.42H76.72V70.18A5.27,5.27,0,0,0,82,75.46h0a5.28,5.28,0,0,0,5.28-5.28V25.42Z"/><g class="cls-10"><path class="cls-11" d="M140,63.78v95.29h24V25.42H87.28V70.18A5.28,5.28,0,0,1,82,75.46h0a5.27,5.27,0,0,1-5.28-5.28V25.42H0V159.07H24V63.78A14.41,14.41,0,0,1,38.36,49.37h0A14.41,14.41,0,0,1,52.77,63.78v6.4A29.23,29.23,0,0,0,82,99.41h0a29.23,29.23,0,0,0,29.23-29.23v-6.4a14.41,14.41,0,0,1,14.41-14.41h0A14.41,14.41,0,0,1,140,63.78Z"/></g><g class="cls-12"><path class="cls-13" d="M140,63.78v95.29h24V25.42H87.28V70.18A5.28,5.28,0,0,1,82,75.46h0a5.27,5.27,0,0,1-5.28-5.28V25.42H0V159.07H24V63.78A14.41,14.41,0,0,1,38.36,49.37h0A14.41,14.41,0,0,1,52.77,63.78v6.4A29.23,29.23,0,0,0,82,99.41h0a29.23,29.23,0,0,0,29.23-29.23v-6.4a14.41,14.41,0,0,1,14.41-14.41h0A14.41,14.41,0,0,1,140,63.78Z"/></g><g class="cls-14"><path class="cls-15" d="M156,42.38V159.07h8V25.42H87.28V70.18A5.28,5.28,0,0,1,82,75.46h0a5.27,5.27,0,0,1-5.28-5.28V25.42H0V159.07H8V42.38a10,10,0,0,1,10-10h40.8a10,10,0,0,1,10,10V69.19A13.26,13.26,0,0,0,82,82.45h0A13.26,13.26,0,0,0,95.26,69.19V42.38a10,10,0,0,1,10-10H146A10,10,0,0,1,156,42.38Z"/></g><g class="cls-16"><path class="cls-17" d="M156,42.38V159.06h8V25.41H87.28V70.18A5.29,5.29,0,0,1,82,75.46h0a5.28,5.28,0,0,1-5.28-5.28V25.41H0V159.06H8V42.38a10,10,0,0,1,10-10h40.8a10,10,0,0,1,10,10v26.8A13.25,13.25,0,0,0,82,82.44h0A13.26,13.26,0,0,0,95.26,69.18V42.38a10,10,0,0,1,10-10H146A10,10,0,0,1,156,42.38Z"/></g><g class="cls-10"><path class="cls-18" d="M591.25,25.41V159.07H615.1V57.26a8,8,0,0,1,8-8h0a8,8,0,0,1,8,8v57.31A28.94,28.94,0,0,0,660,143.51h.36a28.94,28.94,0,0,0,28.94-28.94V57.26a8,8,0,0,1,8-8h0a8,8,0,0,1,8,8V159.07h23.85V25.41Zm69,94.25h0a5.27,5.27,0,0,1-5.27-5.27V70.08a5.27,5.27,0,0,1,5.27-5.27h0a5.27,5.27,0,0,1,5.27,5.27v44.31A5.27,5.27,0,0,1,660.22,119.66Z"/></g><g class="cls-10"><path class="cls-19" d="M302.27,71.32c-8.75,0-16.24-3.07-21.63-8.83s-8.06-13.37-8.08-22.36V25.41H248.49V66.85a5.29,5.29,0,0,1-10.58,0V25.41H174.54v84.64h23.85V49.26h15.67V67A28.94,28.94,0,0,0,243,96a28,28,0,0,0,20.11-8.11A29.31,29.31,0,0,0,269,79.75c4.58,10.08,16.18,14.6,23.85,14.66v64.66h23.85V71.33ZM174.54,120.59v38.48h23.85V120.59Z"/></g><g class="cls-10"><path class="cls-20" d="M512.1,25.41V66.85a5.29,5.29,0,0,1-5.28,5.29h0a5.29,5.29,0,0,1-5.29-5.29V25.41H477.09v3.84c0,3.8,0,8.7,0,10.87,0,9-2.8,16.74-8.06,22.37s-12.9,8.82-21.65,8.83H432.91v87.74h23.85V94.41c6.87.19,20-5.08,23.79-14.88a29,29,0,0,0,26.1,16.39H507A28.94,28.94,0,0,0,536,67V59.72a10.46,10.46,0,0,1,10.46-10.46h0a10.45,10.45,0,0,1,10.45,10.46v99.35h23.85V25.41Z"/></g><g class="cls-10"><path class="cls-21" d="M348.35,44.89V88.52h17V44.89Zm0,76.71h-21v37.47h17v-20.5h21.05V99.07h-17ZM337.8,25.41H280.16c0,3.21,0,11.64,0,14.7,0,14.35,8.66,23.59,22.12,23.61H337.8ZM391.82,0h-34a9.47,9.47,0,0,0-9.48,9.48V44.89h17V29a9.51,9.51,0,0,1,9.51-9.52h0A9.52,9.52,0,0,1,384.35,29v15.9h17V9.49A9.49,9.49,0,0,0,391.82,0ZM469.5,25.41H411.85V63.72h35.53c13.46,0,22.1-9.26,22.12-23.61C469.51,37.05,469.5,28.62,469.5,25.41ZM384.35,44.89V88.52h17V44.89Zm17,76.71V99.07h-17v39.5h21v20.5h17V121.6Z"/></g><g class="cls-12"><path class="cls-22" d="M591.25,25.41V159.07H615.1V57.26a8,8,0,0,1,8-8h0a8,8,0,0,1,8,8v57.3A29,29,0,0,0,660,143.51h.36a28.94,28.94,0,0,0,28.94-28.95V57.26a8,8,0,0,1,8-8h0a8,8,0,0,1,8,8V159.07h23.85V25.41Zm63.7,89V70.08a5.27,5.27,0,1,1,10.54,0v44.31a5.27,5.27,0,1,1-10.54,0Z"/></g><g class="cls-12"><path class="cls-23" d="M174.54,120.59v38.48h23.85V120.59ZM302.27,71.32c-8.75,0-16.24-3.07-21.63-8.83s-8.06-13.37-8.08-22.36V25.41H248.49V66.85a5.29,5.29,0,0,1-10.58,0V25.41H174.54v84.64h23.85V49.26h15.67V67A28.94,28.94,0,0,0,243,96a28,28,0,0,0,20.11-8.11A29.31,29.31,0,0,0,269,79.75c4.58,10.08,16.18,14.6,23.85,14.66v64.66h23.85V71.33Z"/></g><g class="cls-24"><path class="cls-25" d="M512.1,25.41V66.6a5.47,5.47,0,0,1-5.48,5.53,5.18,5.18,0,0,1-3.54-1.54,5.27,5.27,0,0,1-1.55-3.74V25.41H477.09v3.84c0,3.8,0,8.7,0,10.87,0,9-2.8,16.74-8.06,22.37s-12.9,8.82-21.65,8.83H432.91v87.74h23.85V94.41c6.88.18,20-5.09,23.78-14.88a29,29,0,0,0,26.11,16.39H507A28.94,28.94,0,0,0,536,67V59.72a10.46,10.46,0,0,1,10.46-10.46h0a10.45,10.45,0,0,1,10.45,10.46v99.35h23.85V25.41Z"/></g><g class="cls-12"><path class="cls-26" d="M401.31,121.6V99.07h-17v39.5h21v20.5h17V121.6Zm-17-76.71V88.52h17V44.89ZM469.5,25.41H411.85V63.72h35.53c13.46,0,22.1-9.26,22.12-23.61C469.51,37.05,469.5,28.62,469.5,25.41ZM391.82,0h-34a9.47,9.47,0,0,0-9.48,9.48V44.89h17V29a9.51,9.51,0,0,1,9.51-9.52h0A9.52,9.52,0,0,1,384.35,29v15.9h17V9.49A9.49,9.49,0,0,0,391.82,0ZM280.16,25.41c0,3.21,0,11.64,0,14.7,0,14.35,8.66,23.59,22.12,23.61H337.8V25.41Zm68.18,73.66V121.6h-21v37.47h17v-20.5h21.05V99.07Zm0-54.18V88.52h17V44.89Z"/></g><path class="cls-27" d="M337.8,25.41H280.16c0,3.21,0,11.64,0,14.7,0,14.35,8.66,23.59,22.12,23.61H337.8v-8H302.29c-9,0-14.14-5.71-14.15-15.65,0-1.43,0-4,0-6.7H337.8Zm63.51,96.19V99.07h-8v30.51h21.06v29.49h8V121.6Zm-53,0h-21v37.47h8V129.58h21V99.07h-8ZM391.82,0h-34a9.47,9.47,0,0,0-9.48,9.48V33.39h8V18a10,10,0,0,1,10-10h17a10,10,0,0,1,10,10V33.39h8V9.49A9.49,9.49,0,0,0,391.82,0ZM469.5,25.41H411.85v8h49.67c0,2.69,0,5.28,0,6.71,0,9.93-5.17,15.63-14.15,15.64H411.85v8h35.53c13.46,0,22.1-9.26,22.12-23.61C469.51,37.05,469.5,28.62,469.5,25.41Zm-76.17,8V88.52h8V33.4Zm-45,0V88.52h8V82h0V33.39Z"/><g class="cls-16"><path class="cls-28" d="M337.8,25.41H280.16c0,3.21,0,11.64,0,14.7,0,14.35,8.66,23.59,22.12,23.61H337.8v-8H302.29c-9,0-14.14-5.71-14.15-15.65,0-1.43,0-4,0-6.7H337.8Zm63.51,96.19V99.07h-8v30.51h21.06v29.49h8V121.6Zm-53,0h-21v37.47h8V129.58h21V99.07h-8ZM391.82,0h-34a9.47,9.47,0,0,0-9.48,9.48V33.39h8V18a10,10,0,0,1,10-10h17a10,10,0,0,1,10,10V33.39h8V9.49A9.49,9.49,0,0,0,391.82,0ZM469.5,25.41H411.85v8h49.67c0,2.69,0,5.28,0,6.71,0,9.93-5.17,15.63-14.15,15.64H411.85v8h35.53c13.46,0,22.1-9.26,22.12-23.61C469.51,37.05,469.5,28.62,469.5,25.41Zm-76.17,8V88.52h8V33.39Zm-45,0V88.52h8V82h0V33.39Z"/></g><g class="cls-14"><path class="cls-29" d="M591.25,25.41V159.07h8V33.39h122V159.07h8V25.41Zm69,31.42A13.25,13.25,0,0,0,647,70.08v44.31a13.26,13.26,0,0,0,26.51,0V70.08A13.26,13.26,0,0,0,660.22,56.83Zm5.27,57.56a5.27,5.27,0,1,1-10.54,0V70.08a5.27,5.27,0,1,1,10.54,0Zm-5.27-57.56A13.25,13.25,0,0,0,647,70.08v44.31a13.26,13.26,0,0,0,26.51,0V70.08A13.26,13.26,0,0,0,660.22,56.83Zm5.27,57.56a5.27,5.27,0,1,1-10.54,0V70.08a5.27,5.27,0,1,1,10.54,0Zm-5.27-57.56A13.25,13.25,0,0,0,647,70.08v44.31a13.26,13.26,0,0,0,26.51,0V70.08A13.26,13.26,0,0,0,660.22,56.83Zm5.27,57.56a5.27,5.27,0,1,1-10.54,0V70.08a5.27,5.27,0,1,1,10.54,0Z"/></g><g class="cls-14"><path class="cls-30" d="M302.27,71.32c-8.75,0-16.24-3.07-21.63-8.83s-8.06-13.37-8.08-22.36V25.41H248.49V66.59A5.5,5.5,0,0,1,243,72.14a5.33,5.33,0,0,1-3.58-1.55,5.27,5.27,0,0,1-1.55-3.74V25.41H174.54v84.64h68.68a5.27,5.27,0,0,1,5.27,5.27h0a5.27,5.27,0,0,1-5.27,5.27H174.54v38.48h8V128.58h60.7a13.26,13.26,0,0,0,13.25-13.26h0a13.25,13.25,0,0,0-13.25-13.25h-60.7V33.39h47.41V66.46c0,7.33,6,13.69,13.32,13.66a13.26,13.26,0,0,0,13.22-13.27V33.39h8.11v6.76c0,11.05,3.56,20.66,10.23,27.79,6.94,7.42,16.43,11.35,27.45,11.36h6.5v79.76h8V71.33Z"/></g><g class="cls-14"><path class="cls-31" d="M512.1,25.41V66.85a5.29,5.29,0,1,1-10.57,0V25.41H477.09v3.84c0,3.8,0,8.7,0,10.87,0,9-2.8,16.74-8.06,22.37s-12.9,8.82-21.65,8.83H432.91v87.74h8V79.31h6.5c11,0,20.52-3.94,27.47-11.36,6.67-7.13,10.2-16.75,10.21-27.78,0-1.45,0-4.06,0-6.77h8.47V66.85a13.27,13.27,0,1,0,26.53,0V33.39h52.65V159.07h8V25.41Z"/></g><g class="cls-16"><path class="cls-32" d="M302.27,71.32c-8.75,0-16.24-3.07-21.63-8.83s-8.06-13.37-8.08-22.36V25.41H248.49V66.59A5.5,5.5,0,0,1,243,72.14a5.33,5.33,0,0,1-3.58-1.55,5.27,5.27,0,0,1-1.55-3.74V25.41H174.54v84.64h68.68a5.27,5.27,0,0,1,5.27,5.27h0a5.27,5.27,0,0,1-5.27,5.27H174.54v38.48h8V128.58h60.7a13.26,13.26,0,0,0,13.25-13.26h0a13.25,13.25,0,0,0-13.25-13.25h-60.7V33.39h47.41V66.46c0,7.33,6,13.69,13.32,13.66a13.26,13.26,0,0,0,13.22-13.27V33.39h8.11v6.76c0,11.05,3.56,20.66,10.23,27.79,6.94,7.42,16.43,11.35,27.45,11.36h6.5v79.76h8V71.33Z"/></g><g class="cls-16"><path class="cls-33" d="M512.1,25.41V66.85a5.29,5.29,0,1,1-10.57,0V25.41H477.09v3.84c0,3.8,0,8.7,0,10.87,0,9-2.8,16.74-8.06,22.37s-12.9,8.82-21.65,8.83H432.91v87.74h8V79.31h6.5c11,0,20.52-3.94,27.47-11.36,6.67-7.13,10.2-16.75,10.21-27.78,0-1.45,0-4.06,0-6.77h8.47V66.85a13.27,13.27,0,1,0,26.53,0V33.39h52.65V159.07h8V25.41Z"/></g><g class="cls-16"><path class="cls-34" d="M591.25,25.41V159.07h8V33.39h122V159.07h8V25.41Z"/></g><g class="cls-16"><path class="cls-35" d="M660.22,56.83A13.25,13.25,0,0,0,647,70.08v44.31a13.26,13.26,0,0,0,26.51,0V70.08A13.26,13.26,0,0,0,660.22,56.83Zm5.27,57.56a5.27,5.27,0,1,1-10.54,0V70.08a5.27,5.27,0,1,1,10.54,0Z"/></g></g></g></svg>