<svg id="Layer_1" data-name="Layer 1" xmlns="http://www.w3.org/2000/svg" viewBox="0 0 729.19 159.06"><defs><style>.cls-1{fill:#fffaee;}</style></defs><path class="cls-1" d="M729.19,159.07V25.41H591.25V159.07ZM655,64.82h10.54v54.85H655Z"/><path class="cls-1" d="M302.27,71.32h14.47v87.73H174.54V120.6h74V110.05h-74V25.41h63.37V72.14h10.58V25.41h24.07V40.13c0,9,2.81,16.73,8.08,22.36S293.51,71.31,302.27,71.32Z"/><path class="cls-1" d="M580.71,25.41V159.06H512.08v-45.9H501.54v45.9H432.91V71.33h14.48c8.75,0,16.23-3.06,21.63-8.83s8.06-13.37,8.07-22.36c0-2.18,0-7.08,0-10.88V25.41h24.44V72.14H512.1V25.41Z"/><path class="cls-1" d="M337.8,25.41V63.73H302.28c-13.46,0-22.11-9.26-22.13-23.61,0-3.07,0-11.5,0-14.71Z"/><polygon class="cls-1" points="164 25.42 164 159.07 111.03 159.07 111.03 113.16 100.49 113.16 100.49 159.07 63.51 159.07 63.51 113.16 52.97 113.16 52.97 159.07 0 159.07 0 25.42 76.72 25.42 76.72 75.46 87.28 75.46 87.28 25.42 164 25.42"/><polygon class="cls-1" points="422.37 121.6 422.37 159.06 380.1 159.06 380.1 136.12 369.55 136.12 369.55 159.06 327.29 159.06 327.29 121.6 348.34 121.6 348.34 99.07 401.31 99.07 401.31 121.6 422.37 121.6"/><path class="cls-1" d="M357.84,0h34a9.49,9.49,0,0,1,9.49,9.49v79a0,0,0,0,1,0,0h-53a0,0,0,0,1,0,0v-79A9.49,9.49,0,0,1,357.84,0Z"/><path class="cls-1" d="M469.5,40.12c0,14.35-8.66,23.59-22.12,23.61H411.85V25.41H469.5C469.5,28.62,469.51,37.05,469.5,40.12Z"/></svg>